<svg xmlns="http://www.w3.org/2000/svg" viewBox="0 0 128 128" xml:space="preserve"><rect style="fill:#b3c315" width="41" height="18" x="70" y="54"/><rect style="fill:#96a40a" width="5" height="18" x="65" y="54"/><rect style="fill:#b3c315" width="13" height="3" x="94" y="50"/><rect style="fill:#96a40a" width="5" height="3" x="89" y="50"/><rect style="fill:#b3c315" width="13" height="3" x="74" y="50"/><rect style="fill:#96a40a" width="5" height="3" x="69" y="50"/><rect style="fill:#b977c7" width="13" height="3" x="72" y="92"/><rect style="fill:#9e5cac" width="5" height="3" x="67" y="92"/><rect style="fill:#b977c7" width="13" height="3" x="51" y="92"/><rect style="fill:#9e5cac" width="5" height="3" x="46" y="92"/><rect style="fill:#49c3f5" width="19" height="19" x="92" y="75"/><rect style="fill:#109ad4" width="5" height="19" x="87" y="75"/><path style="fill:#b977c7" d="M25,97h86l-18,19H43L25,97z"/><polygon style="fill:#9e5cac" points="20 97 38 116 43 116 25 97"/><path style="fill:#f1b014" d="M111,36H25l18-19h50L111,36z"/><polygon style="fill:#f09108" points="43 17 38 17 20 36 25 36"/><rect style="fill:#f1b014" width="14" height="3" x="51" y="12"/><rect style="fill:#f09108" width="5" height="3" x="46" y="12"/><rect style="fill:#f1b014" width="14" height="3" x="73" y="12"/><rect style="fill:#f09108" width="5" height="3" x="68" y="12"/><rect style="fill:#49c3f5" width="18" height="26" x="25" y="39"/><rect style="fill:#109ad4" width="5" height="26" x="20" y="39"/><rect style="fill:#d25e4d" width="5" height="26" x="20" y="68"/><rect style="fill:#e67666" width="18" height="26" x="25" y="68"/></svg>